<svg version="1" xmlns="http://www.w3.org/2000/svg" width="346.667" height="346.667" viewBox="0 0 260.000000 260.000000"><path d="M111.8 15.6C88 19.2 66.3 30.5 48.4 48.4c-18.2 18.2-29.2 39.7-32.9 64.3-5.7 37.5 6.1 73 32.9 99.9 18.2 18.2 39.7 29.2 64.3 32.9 37.5 5.7 73-6.1 99.9-32.9 26.8-26.9 38.6-62.4 32.9-99.9-3.7-24.6-14.7-46.1-32.9-64.3-26.9-26.9-63.1-38.7-100.8-32.8zM71 102.7c0 26.4.2 30.2 1.8 33.3 3 6.1 2.3 6 54.7 5.8l47.6-.3-15-12.4-15.1-12.4 3.7-4.3c2.1-2.3 4.3-4.2 5-4.1 1.6.3 47.4 39.9 47.1 40.8-.2.4-10.8 9.7-23.7 20.8l-23.5 20.2-4.3-4.3c-3.4-3.3-4-4.5-3.1-5.4.7-.6 8-6.7 16.2-13.5l14.8-12.4-51.3-.5c-57.1-.6-55.5-.4-61.6-7.3-1.8-2-3.7-5.3-4.2-7.4-.7-2.3-1.1-16.3-1.1-35.1V73h12v29.7z"/></svg>